<svg width="400" height="400" viewBox="0 0 400 400" xmlns="http://www.w3.org/2000/svg">
<defs>
    <filter id="shadow" x="-20%" y="-20%" width="140%" height="140%">
        <feDropShadow dx="2" dy="4" stdDeviation="3" flood-opacity="0.3"/>
    </filter>
    <filter id="glow" x="-50%" y="-50%" width="200%" height="200%">
        <feGaussianBlur stdDeviation="8" result="blur"/>
        <feMerge><feMergeNode in="blur"/><feMergeNode in="SourceGraphic"/></feMerge>
    </filter>
    <linearGradient id="rainbow-body" x1="0%" y1="0%" x2="100%" y2="100%">
        <stop offset="0%" stop-color="#FF6B6B"/><stop offset="25%" stop-color="#FFE66D"/>
        <stop offset="50%" stop-color="#4ECDC4"/><stop offset="75%" stop-color="#45B7D1"/>
        <stop offset="100%" stop-color="#DDA0DD"/>
    </linearGradient>
    <radialGradient id="galaxy-body" cx="30%" cy="30%">
        <stop offset="0%" stop-color="#E6E6FA"/><stop offset="50%" stop-color="#9370DB"/>
        <stop offset="100%" stop-color="#1A0033"/>
    </radialGradient>
    <linearGradient id="holo-body" x1="0%" y1="0%" x2="100%" y2="100%">
        <stop offset="0%" stop-color="#FF00FF"/><stop offset="50%" stop-color="#00FFFF"/>
        <stop offset="100%" stop-color="#FFFF00"/>
    </linearGradient>
    <linearGradient id="sky-gradient" x1="0%" y1="0%" x2="0%" y2="100%">
        <stop offset="0%" stop-color="#87CEEB"/><stop offset="100%" stop-color="#E0F4FF"/>
    </linearGradient>
    <linearGradient id="grass-gradient" x1="0%" y1="0%" x2="0%" y2="100%">
        <stop offset="0%" stop-color="#90EE90"/><stop offset="100%" stop-color="#228B22"/>
    </linearGradient>
    <linearGradient id="sunset-gradient" x1="0%" y1="0%" x2="0%" y2="100%">
        <stop offset="0%" stop-color="#FF6B6B"/><stop offset="50%" stop-color="#FFE66D"/>
        <stop offset="100%" stop-color="#4ECDC4"/>
    </linearGradient>
    <linearGradient id="aurora-gradient" x1="0%" y1="0%" x2="100%" y2="100%">
        <stop offset="0%" stop-color="#0D1B2A"/><stop offset="30%" stop-color="#00FF7F"/>
        <stop offset="70%" stop-color="#FF00FF"/><stop offset="100%" stop-color="#0D1B2A"/>
    </linearGradient>
    <radialGradient id="multiverse-gradient" cx="50%" cy="50%">
        <stop offset="0%" stop-color="#FFD700"/><stop offset="40%" stop-color="#FF00FF"/>
        <stop offset="70%" stop-color="#00FFFF"/><stop offset="100%" stop-color="#000"/>
    </radialGradient>
    <linearGradient id="rift-gradient" x1="0%" y1="0%" x2="100%" y2="100%">
        <stop offset="0%" stop-color="#000"/><stop offset="30%" stop-color="#9400D3"/>
        <stop offset="50%" stop-color="#00FFFF"/><stop offset="70%" stop-color="#9400D3"/>
        <stop offset="100%" stop-color="#000"/>
    </linearGradient>
    <linearGradient id="heaven-gradient" x1="0%" y1="0%" x2="0%" y2="100%">
        <stop offset="0%" stop-color="#FFF"/><stop offset="50%" stop-color="#FFD700" stop-opacity="0.3"/>
        <stop offset="100%" stop-color="#F0F8FF"/>
    </linearGradient>
    <clipPath id="head-clip"><ellipse cx="200" cy="200" rx="110" ry="115"/></clipPath>
</defs>
<rect width="400" height="400" fill="#0D1B2A"/>
<circle cx="79" cy="261" r="1" fill="white" opacity="0.4"/>
<circle cx="158" cy="122" r="2" fill="white" opacity="0.5"/>
<circle cx="237" cy="383" r="1" fill="white" opacity="0.6000000000000001"/>
<circle cx="316" cy="244" r="2" fill="white" opacity="0.7000000000000001"/>
<circle cx="395" cy="105" r="1" fill="white" opacity="0.8"/>
<circle cx="74" cy="366" r="2" fill="white" opacity="0.4"/>
<circle cx="153" cy="227" r="1" fill="white" opacity="0.5"/>
<circle cx="232" cy="88" r="2" fill="white" opacity="0.6000000000000001"/>
<circle cx="311" cy="349" r="1" fill="white" opacity="0.7000000000000001"/>
<circle cx="390" cy="210" r="2" fill="white" opacity="0.8"/>
<circle cx="69" cy="71" r="1" fill="white" opacity="0.4"/>
<circle cx="148" cy="332" r="2" fill="white" opacity="0.5"/>
<circle cx="227" cy="193" r="1" fill="white" opacity="0.6000000000000001"/>
<circle cx="306" cy="54" r="2" fill="white" opacity="0.7000000000000001"/>
<circle cx="385" cy="315" r="1" fill="white" opacity="0.8"/>
<circle cx="64" cy="176" r="2" fill="white" opacity="0.4"/>
<circle cx="143" cy="37" r="1" fill="white" opacity="0.5"/>
<circle cx="222" cy="298" r="2" fill="white" opacity="0.6000000000000001"/>
<circle cx="301" cy="159" r="1" fill="white" opacity="0.7000000000000001"/>
<circle cx="380" cy="20" r="2" fill="white" opacity="0.8"/>
<circle cx="59" cy="281" r="1" fill="white" opacity="0.4"/>
<circle cx="138" cy="142" r="2" fill="white" opacity="0.5"/>
<circle cx="217" cy="3" r="1" fill="white" opacity="0.6000000000000001"/>
<circle cx="296" cy="264" r="2" fill="white" opacity="0.7000000000000001"/>
<circle cx="375" cy="125" r="1" fill="white" opacity="0.8"/>
<circle cx="54" cy="386" r="2" fill="white" opacity="0.4"/>
<circle cx="133" cy="247" r="1" fill="white" opacity="0.5"/>
<circle cx="212" cy="108" r="2" fill="white" opacity="0.6000000000000001"/>
<circle cx="291" cy="369" r="1" fill="white" opacity="0.7000000000000001"/>
<circle cx="370" cy="230" r="2" fill="white" opacity="0.8"/>
<circle cx="49" cy="91" r="1" fill="white" opacity="0.4"/>
<circle cx="128" cy="352" r="2" fill="white" opacity="0.5"/>
<circle cx="207" cy="213" r="1" fill="white" opacity="0.6000000000000001"/>
<circle cx="286" cy="74" r="2" fill="white" opacity="0.7000000000000001"/>
<circle cx="365" cy="335" r="1" fill="white" opacity="0.8"/>
<circle cx="44" cy="196" r="2" fill="white" opacity="0.4"/>
<circle cx="123" cy="57" r="1" fill="white" opacity="0.5"/>
<circle cx="202" cy="318" r="2" fill="white" opacity="0.6000000000000001"/>
<circle cx="281" cy="179" r="1" fill="white" opacity="0.7000000000000001"/>
<circle cx="360" cy="40" r="2" fill="white" opacity="0.8"/>

<ellipse cx="115" cy="140" rx="45" ry="50" fill="#808080" filter="url(#shadow)"/>
<ellipse cx="115" cy="140" rx="30" ry="35" fill="#FFB6C1"/>
<ellipse cx="115" cy="145" rx="18" ry="22" fill="#FF9999"/>
<ellipse cx="285" cy="140" rx="45" ry="50" fill="#808080" filter="url(#shadow)"/>
<ellipse cx="285" cy="140" rx="30" ry="35" fill="#FFB6C1"/>
<ellipse cx="285" cy="145" rx="18" ry="22" fill="#FF9999"/>
<ellipse cx="200" cy="200" rx="110" ry="115" fill="#808080" filter="url(#shadow)"/>
<ellipse cx="180" cy="140" rx="50" ry="30" fill="#A0A0A0" opacity="0.3"/>
<g clip-path="url(#head-clip)"><text x="120" y="120" font-size="18" fill="#FFD700" opacity="0.5">★</text><text x="221" y="129" font-size="18" fill="#FFD700" opacity="0.5">★</text><text x="162" y="138" font-size="18" fill="#FFD700" opacity="0.5">★</text><text x="263" y="147" font-size="18" fill="#FFD700" opacity="0.5">★</text><text x="204" y="156" font-size="18" fill="#FFD700" opacity="0.5">★</text><text x="145" y="165" font-size="18" fill="#FFD700" opacity="0.5">★</text><text x="246" y="174" font-size="18" fill="#FFD700" opacity="0.5">★</text><text x="187" y="183" font-size="18" fill="#FFD700" opacity="0.5">★</text></g>
<ellipse cx="200" cy="235" rx="70" ry="60" fill="#FFDAB9"/>
<ellipse cx="200" cy="250" rx="55" ry="40" fill="#DEB887" opacity="0.3"/>
<ellipse cx="162" cy="185" rx="22" ry="24" fill="#000" opacity="0.08"/>
<ellipse cx="238" cy="185" rx="22" ry="24" fill="#000" opacity="0.08"/>
<ellipse cx="162" cy="185" rx="18" ry="20" fill="white"/>
<circle cx="162" cy="185" r="12" fill="#3D2314"/>
<circle cx="162" cy="185" r="6" fill="#000"/>
<circle cx="166" cy="181" r="4" fill="white"/>
<ellipse cx="238" cy="185" rx="18" ry="20" fill="white"/>
<circle cx="238" cy="185" r="12" fill="#3D2314"/>
<circle cx="238" cy="185" r="6" fill="#000"/>
<circle cx="242" cy="181" r="4" fill="white"/>
<g>
            <ellipse cx="200" cy="230" rx="25" ry="18" fill="#8B4513"/>
            <ellipse cx="200" cy="230" rx="22" ry="15" fill="#A0522D"/>
            <ellipse cx="192" cy="230" rx="5" ry="7" fill="#5D2E0C"/>
            <ellipse cx="208" cy="230" rx="5" ry="7" fill="#5D2E0C"/>
        </g>
<line x1="182" y1="260" x2="218" y2="260" stroke="#5D2E0C" stroke-width="2"/>
<circle cx="238" cy="185" r="22" fill="none" stroke="#DAA520" stroke-width="3"/><line x1="260" y1="185" x2="290" y2="240" stroke="#DAA520" stroke-width="2"/>

<g transform="translate(325, 15)">
            <rect width="65" height="22" rx="4" fill="#A0A0A0" opacity="0.9"/>
            <text x="32" y="15" font-size="8" fill="#FFF" text-anchor="middle" font-family="sans-serif" font-weight="bold">COMMON</text>
        </g>
        <g transform="translate(10, 15)">
            <rect width="45" height="22" rx="4" fill="#333" opacity="0.8"/>
            <text x="22" y="15" font-size="9" fill="#FFF" text-anchor="middle" font-family="sans-serif">Gen 1</text>
        </g>
</svg>